<?xml version="1.0" encoding="UTF-8" standalone="no"?>
<!DOCTYPE svg PUBLIC "-//W3C//DTD SVG 1.1//EN"
 "http://www.w3.org/Graphics/SVG/1.1/DTD/svg11.dtd">
<!-- Generated by graphviz version 14.1.4 (20260321.0153)
 -->
<!-- Title: Example Pages: 1 -->
<svg width="633pt" height="165pt"
 viewBox="0.00 0.00 633.00 165.00" xmlns="http://www.w3.org/2000/svg" xmlns:xlink="http://www.w3.org/1999/xlink">
<g id="graph0" class="graph" transform="scale(1 1) rotate(0) translate(4 161.25)">
<title>Example</title>
<polygon fill="white" stroke="none" points="-4,4 -4,-161.25 628.91,-161.25 628.91,4 -4,4"/>
<text xml:space="preserve" text-anchor="middle" x="312.45" y="-134.25" font-family="Arial Bold" font-size="20.00">Example</text>
<!-- FOO -->
<g id="node1" class="node">
<title>FOO</title>
<ellipse fill="#f8f8f8" stroke="black" cx="29.34" cy="-63" rx="29.34" ry="29.34"/>
<text xml:space="preserve" text-anchor="middle" x="29.34" y="-57.95" font-family="Times New Roman,serif" font-size="14.00">FOO</text>
</g>
<!-- BAR -->
<g id="node2" class="node">
<title>BAR</title>
<polygon fill="#f8f8f8" stroke="black" points="214.16,-81 171.94,-63 214.16,-45 256.38,-63 214.16,-81"/>
<text xml:space="preserve" text-anchor="middle" x="214.16" y="-57.95" font-family="Times New Roman,serif" font-size="14.00">BAR</text>
</g>
<!-- FOO&#45;&gt;BAR -->
<g id="edge1" class="edge">
<title>FOO&#45;&gt;BAR</title>
<path fill="none" stroke="#555555" d="M58.91,-63C85.77,-63 126.66,-63 159.59,-63"/>
<polygon fill="#555555" stroke="#555555" points="159.36,-66.5 169.36,-63 159.36,-59.5 159.36,-66.5"/>
<text xml:space="preserve" text-anchor="middle" x="115.31" y="-76" font-family="Times New Roman,serif" font-size="10.00">on: A</text>
<text xml:space="preserve" text-anchor="middle" x="115.31" y="-64.75" font-family="Times New Roman,serif" font-size="10.00">do: handler_A</text>
</g>
<!-- BAZ -->
<g id="node3" class="node">
<title>BAZ</title>
<ellipse fill="#f8f8f8" stroke="black" cx="405.39" cy="-108" rx="29.34" ry="18"/>
<text xml:space="preserve" text-anchor="middle" x="405.39" y="-102.95" font-family="Times New Roman,serif" font-size="14.00">BAZ</text>
</g>
<!-- BAR&#45;&gt;BAZ -->
<g id="edge2" class="edge">
<title>BAR&#45;&gt;BAZ</title>
<path fill="none" stroke="#555555" d="M242.27,-69.45C274.96,-77.22 330.09,-90.33 366.86,-99.07"/>
<polygon fill="#555555" stroke="#555555" points="365.62,-102.38 376.16,-101.29 367.24,-95.57 365.62,-102.38"/>
<text xml:space="preserve" text-anchor="middle" x="312.63" y="-105.16" font-family="Times New Roman,serif" font-size="10.00">on: B</text>
<text xml:space="preserve" text-anchor="middle" x="312.63" y="-93.91" font-family="Times New Roman,serif" font-size="10.00">do: handler_B</text>
</g>
<!-- THUD -->
<g id="node4" class="node">
<title>THUD</title>
<ellipse fill="#f8f8f8" stroke="black" cx="405.39" cy="-18" rx="36.51" ry="18"/>
<text xml:space="preserve" text-anchor="middle" x="405.39" y="-12.95" font-family="Times New Roman,serif" font-size="14.00">THUD</text>
</g>
<!-- BAR&#45;&gt;THUD -->
<g id="edge3" class="edge">
<title>BAR&#45;&gt;THUD</title>
<path fill="none" stroke="#555555" d="M240.95,-56.01C260.27,-50.77 283.38,-44.5 283.38,-44.5 283.38,-44.5 326.07,-35.15 360.73,-27.56"/>
<polygon fill="#555555" stroke="#555555" points="361.15,-31.05 370.17,-25.5 359.65,-24.22 361.15,-31.05"/>
<text xml:space="preserve" text-anchor="middle" x="312.63" y="-57.5" font-family="Times New Roman,serif" font-size="10.00">on: C</text>
<text xml:space="preserve" text-anchor="middle" x="312.63" y="-46.25" font-family="Times New Roman,serif" font-size="10.00">do: handler_C</text>
</g>
<!-- QUX -->
<g id="node5" class="node">
<title>QUX</title>
<ellipse fill="#f8f8f8" stroke="black" cx="590.03" cy="-63" rx="30.88" ry="30.88"/>
<ellipse fill="none" stroke="black" cx="590.03" cy="-63" rx="34.88" ry="34.88"/>
<text xml:space="preserve" text-anchor="middle" x="590.03" y="-57.95" font-family="Times New Roman,serif" font-size="14.00">QUX</text>
</g>
<!-- BAZ&#45;&gt;QUX -->
<g id="edge4" class="edge">
<title>BAZ&#45;&gt;QUX</title>
<path fill="none" stroke="#555555" d="M432.95,-101.46C462.32,-94.22 510.1,-82.45 545.07,-73.83"/>
<polygon fill="#555555" stroke="#555555" points="545.6,-77.31 554.47,-71.52 543.92,-70.51 545.6,-77.31"/>
<text xml:space="preserve" text-anchor="middle" x="498.52" y="-105.16" font-family="Times New Roman,serif" font-size="10.00">on: D</text>
<text xml:space="preserve" text-anchor="middle" x="498.52" y="-93.91" font-family="Times New Roman,serif" font-size="10.00">do: handler_D</text>
</g>
<!-- THUD&#45;&gt;QUX -->
<g id="edge5" class="edge">
<title>THUD&#45;&gt;QUX</title>
<path fill="none" stroke="#555555" d="M439.66,-24.97C475.71,-32.52 528.15,-43.5 528.15,-43.5 528.15,-43.5 535.77,-45.94 545.61,-49.09"/>
<polygon fill="#555555" stroke="#555555" points="544.42,-52.39 555.01,-52.1 546.55,-45.72 544.42,-52.39"/>
<text xml:space="preserve" text-anchor="middle" x="498.52" y="-56.5" font-family="Times New Roman,serif" font-size="10.00">on: E</text>
<text xml:space="preserve" text-anchor="middle" x="498.52" y="-45.25" font-family="Times New Roman,serif" font-size="10.00">do: handler_E</text>
</g>
</g>
</svg>
